Coordinates
version=1
nRows=9
nColumns=36
inDegrees=yes

Units are S.I. units (second, meters, Newtons, ...)
If the header above contains a line with 'inDegrees', this indicates whether rotational values are in degrees (yes) or radians (no).

endheader
time	pelvis_tilt	pelvis_list	pelvis_rotation	pelvis_tx	pelvis_ty	pelvis_tz	hip_flexion_r	hip_adduction_r	hip_rotation_r	knee_angle_r	knee_angle_r_beta	ankle_angle_r	subtalar_angle_r	mtp_angle_r	hip_flexion_l	hip_adduction_l	hip_rotation_l	knee_angle_l	knee_angle_l_beta	ankle_angle_l	subtalar_angle_l	mtp_angle_l	lumbar_extension	lumbar_bending	lumbar_rotation	arm_flex_r	arm_add_r	arm_rot_r	elbow_flex_r	pro_sup_r	arm_flex_l	arm_add_l	arm_rot_l	elbow_flex_l	pro_sup_l
      0.00000000	     -0.07262822	     -0.13522443	      2.92128392	     -0.96038536	      1.28084867	     -0.05976314	     -1.56069221	     -2.17776053	     -2.72914089	      5.27742599	      0.09210846	      6.72843261	     -9.12640401	     -5.91856918	      0.38915550	     -2.15957560	     -1.72470666	      5.40354325	      0.09430962	     10.67597061	     -0.45773614	     -5.91856918	     -8.57583432	      2.07584768	     -0.65217662	      6.76548915	     -8.98910901	     19.51545884	     27.24686268	     74.04160944	      4.01211471	     -8.88132294	     21.86244542	     30.38298656	     67.20644617
      0.00416670	     -1.43787870	     -0.00633374	      2.45677684	     -0.95993005	      1.28234063	     -0.05894783	      0.41523952	     -2.22742714	     -1.84181226	      6.09972904	      0.10646036	      8.94181101	     -7.91709781	     -6.07553275	      1.73730397	     -1.57636645	     -1.35105377	      4.92610921	      0.08597683	      9.86457896	     -0.36189306	     -6.07553275	     -6.72311367	      1.99724567	     -0.50827083	      6.49261790	     -8.71083183	     18.35719431	     27.67235228	     73.05264745	      3.43079609	     -8.60326855	     21.25035001	     30.80875836	     66.68481427
      0.00833330	     -2.11831585	      0.49347042	      2.06662041	     -0.95746149	      1.27942614	     -0.05762403	      0.79792085	     -2.74700635	     -2.38096578	      5.36836254	      0.09369560	      9.49587390	     -6.94220055	     -6.63234308	      2.14484909	     -1.10859107	     -1.92558252	      4.53356740	      0.07912568	      9.81082991	      0.09615515	     -6.63234308	     -5.81371622	      1.10163381	      0.49806100	      5.45640454	     -7.35380016	     10.96047348	     28.06803535	     80.02328756	      4.00652492	     -8.43726422	     20.29556125	     29.84402207	     71.29869405
      0.01250000	     -1.60436883	      0.81865371	      1.78411883	     -0.95777104	      1.28188247	     -0.05702277	      0.02025033	     -3.10822752	     -2.25562175	      4.85887541	      0.08480337	      9.63303314	     -6.45318790	     -6.77449722	      0.98914771	     -0.74543905	     -1.82171713	      3.55955353	      0.06212593	      9.32406169	     -0.31869503	     -6.77449722	     -6.46474986	      0.55376722	      0.86603976	      5.38660192	     -6.94177092	     10.09239509	     28.16264447	     77.92315129	      4.26360092	     -8.58838902	     19.66570023	     29.80275512	     70.13914971
      0.01666670	     -1.80761665	      0.91832052	      1.59735164	     -0.95783246	      1.28164348	     -0.05728690	      0.06834382	     -3.21447098	     -2.07275494	      4.48094424	      0.07820723	      9.58777242	     -6.32026784	     -6.79597469	      0.87178689	     -0.57703986	     -1.85311076	      3.02237829	      0.05275045	      9.24363298	     -0.29846647	     -6.79597469	     -6.17547299	      0.42627565	      1.04205505	      5.11284684	     -6.84444088	     10.01551916	     28.61362125	     77.58906200	      4.04822236	     -8.73268987	     19.64938995	     30.19602696	     70.00437719
      0.02083330	     -1.05955611	      0.98129202	      1.35574832	     -0.95656371	      1.27909627	     -0.05679356	     -0.95496342	     -3.22334826	     -1.72499159	      4.02686130	      0.07028199	      9.41963211	     -6.29857656	     -6.79577411	     -0.22515155	     -0.51200816	     -1.85532184	      2.50830927	      0.04377826	      9.16652902	     -0.45756345	     -6.79577411	     -7.16147014	      0.32201341	      1.65459136	      4.93871308	     -6.95543490	      9.82506508	     29.28977550	     77.62916937	      4.46887377	     -8.90941374	     20.36681601	     30.50250106	     71.04911419
      0.02500000	     -1.09706990	      1.01915543	      1.33581702	     -0.95762081	      1.28037270	     -0.05736464	     -0.99520349	     -3.27550578	     -1.71983667	      3.89735888	      0.06802174	      9.38866937	     -6.21705796	     -7.10728839	     -0.26233995	     -0.42096220	     -1.54828657	      2.33884521	      0.04082055	      9.02349949	     -0.87783344	     -7.10728839	     -7.05749368	      0.33744507	      2.10702138	      4.64009740	     -7.08250964	      9.27509637	     29.63827040	     79.94428796	      4.78126947	     -8.92977201	     20.86003190	     30.27933627	     78.32235929
      0.02916670	     -0.98315459	      1.07159572	      1.25337791	     -0.95917798	      1.28339599	     -0.05682531	     -1.18369573	     -3.32404799	     -1.57212430	      3.64315452	      0.06358504	      9.09574614	     -6.32500457	     -7.17402036	     -0.39112222	     -0.31784868	     -1.49263468	      2.22554108	      0.03884302	      8.77614397	     -1.15345819	     -7.17402036	     -7.27447247	      0.32625806	      2.23830583	      4.77499522	     -7.34972486	     10.43042658	     29.81576783	     78.60897123	      4.93497627	     -9.02540118	     21.69591113	     30.54665872	     77.43278391
      0.03333330	     -0.90609249	      1.07233071	      1.22257996	     -0.95742842	      1.28075131	     -0.05638816	     -1.37948421	     -3.29028965	     -1.29369148	      3.40269498	      0.05938823	      8.80561260	     -6.60245317	     -7.23663177	     -0.49116990	     -0.31013602	     -1.41956463	      2.13530787	      0.03726815	      8.60957371	     -1.26384361	     -7.23663177	     -7.33376380	      0.38166094	      2.30494686	      4.80682484	     -7.58798556	     11.42094338	     29.99601182	     77.39076119	      5.02742563	     -9.15642091	     22.64941231	     30.66548290	     76.84752535
